<svg id="a"
  xmlns="http://www.w3.org/2000/svg" viewBox="0 0 1325.91 313.85">
  <path d="m1057.79,161.86l-22.07,96.71h74.02l22.07-96.71h-74.02Zm-131.44,74.37l29.59-129.65h222.59c19.81,0,37.2,8.41,49.88,24.13,12.69,15.72,17.14,34.36,12.77,53.5l-14.01,61.36c-9.33,40.85-44,68.29-86.29,68.29h-151.89c-19.81,0-37.2-8.41-49.88-24.13-12.69-15.72-17.13-34.36-12.77-53.5Z" fill="#033" fill-rule="evenodd" stroke-width="0"/>
  <path d="m854.47,161.86l46.76,152h-114.47l-22.42-72.88-86.38,72.88h-88.13L661.47,0h114.47l-44.51,194.99,79.99-67.49c16.71-14.1,35.6-20.93,57.89-20.93h49.85l-12.62,55.28h-52.08Z" fill="#033" fill-rule="evenodd" stroke-width="0"/>
  <path d="m161.78,106.58l-47.31,207.28H0L47.31,106.58h114.47ZM186.11,0l-16.22,71.05H55.42L71.64,0h114.47Zm250.4,161.86h-136.1l-10.4,45.57c-2.88,12.6.05,24.89,8.41,35.25,8.36,10.36,19.81,15.89,32.86,15.89h83.15l-12.62,55.28h-139c-27.5,0-51.64-11.67-69.25-33.49-17.61-21.82-23.79-47.71-17.72-74.27L222.88,0h114.47l-24.33,106.58h136.1l-12.62,55.28Z" fill="#033" fill-rule="evenodd" stroke-width="0"/>
  <polygon points="600.37 106.58 553.06 313.85 438.59 313.85 485.9 106.58 600.37 106.58" fill="#033" fill-rule="evenodd" stroke-width="0"/>
  <polygon points="624.7 0 608.48 71.05 494.01 71.05 510.23 0 624.7 0" fill="#033" fill-rule="evenodd" stroke-width="0"/>
  <path d="m1286.53,136.24h2.77c3.95,0,6.41-.16,7.36-.46.95-.3,1.7-.82,2.26-1.58.55-.75.82-1.6.82-2.57s-.27-1.76-.81-2.49c-.54-.72-1.31-1.25-2.3-1.56-.99-.31-3.44-.47-7.33-.47h-2.77v9.12Zm-6.91,19.27v-33.76h6.85c6.42,0,10.03.03,10.8.09,2.27.18,4.04.64,5.3,1.35,1.25.7,2.3,1.78,3.16,3.24.84,1.45,1.26,3.07,1.26,4.83,0,2.44-.79,4.52-2.39,6.25-1.59,1.73-3.82,2.8-6.69,3.23,1.02.38,1.82.81,2.37,1.26.55.45,1.32,1.32,2.29,2.59.26.34,1.08,1.7,2.5,4.12l3.96,6.8h-8.52l-2.8-5.5c-1.89-3.68-3.45-6.01-4.69-6.96-1.25-.95-2.81-1.43-4.72-1.43h-1.78v13.9h-6.91Zm14.44-42.62c-4.39,0-8.6,1.09-12.62,3.28-4.02,2.19-7.19,5.33-9.51,9.44-2.31,4.09-3.48,8.4-3.48,12.87s1.14,8.72,3.4,12.76c2.26,4.05,5.41,7.2,9.46,9.48,4.05,2.27,8.3,3.41,12.74,3.41s8.71-1.14,12.75-3.41c4.05-2.27,7.2-5.43,9.48-9.48,2.27-4.04,3.41-8.3,3.41-12.76s-1.16-8.78-3.48-12.87c-2.32-4.11-5.49-7.25-9.52-9.44-4.05-2.19-8.25-3.28-12.63-3.28Zm-.03-6.31c5.47,0,10.71,1.36,15.73,4.1,5.03,2.73,8.98,6.65,11.85,11.75,2.87,5.1,4.3,10.44,4.3,16.03s-1.41,10.84-4.22,15.88c-2.83,5.03-6.75,8.95-11.78,11.78-5.04,2.81-10.33,4.22-15.88,4.22s-10.84-1.41-15.89-4.22c-5.03-2.83-8.95-6.75-11.78-11.78-2.81-5.04-4.22-10.33-4.22-15.88s1.43-10.93,4.3-16.03c2.87-5.1,6.82-9.02,11.85-11.75,5.01-2.74,10.26-4.1,15.73-4.1Z" fill="#033" stroke-width="0"/>
</svg>